<svg version="1.1" id="Layer_1" xmlns="http://www.w3.org/2000/svg" xmlns:xlink="http://www.w3.org/1999/xlink" x="0px" y="0px"
	 width="100%" viewBox="0 0 900 898" enable-background="new 0 0 900 898" xml:space="preserve">
<path fill="#000000" opacity="1.000000" stroke="none" 
	d="
M414.000000,899.000000 
	C276.000000,899.000000 138.500000,899.000000 1.000000,899.000000 
	C1.000000,599.666687 1.000000,300.333344 1.000000,1.000000 
	C301.000000,1.000000 601.000000,1.000000 901.000000,1.000000 
	C901.000000,300.333344 901.000000,599.666687 901.000000,899.000000 
	C738.833313,899.000000 576.666687,899.000000 414.000000,899.000000 
M236.190659,202.691696 
	C233.645889,204.551910 230.909271,206.201294 228.591187,208.310638 
	C220.640060,215.545654 219.196716,225.140274 219.197159,235.215988 
	C219.203583,380.706726 219.196198,526.197510 219.231003,671.688232 
	C219.231918,675.510620 219.494339,679.353333 219.935471,683.151611 
	C221.532379,696.901367 228.857346,705.694580 242.598618,707.810425 
	C250.434311,709.016907 258.777588,708.272217 266.710022,707.134827 
	C275.001434,705.945923 281.067963,700.384766 283.535950,692.487488 
	C285.583069,685.937073 286.798615,678.840393 286.810394,671.982971 
	C287.003906,559.157166 286.947998,446.330872 286.948059,333.504700 
	C286.948059,331.746368 286.948059,329.988068 286.948059,326.890198 
	C290.843567,331.738525 293.909271,335.546783 296.967316,339.361145 
	C377.274567,439.529144 457.581085,539.697693 537.887573,639.866272 
	C556.532410,663.122620 575.112915,686.430847 593.847778,709.614441 
	C603.465271,721.515625 614.593933,724.987793 627.361511,719.885376 
	C631.926453,718.060974 636.304382,715.399170 640.232483,712.415039 
	C656.621460,699.964661 659.374756,685.738281 647.764893,668.692627 
	C640.194641,657.578003 631.244202,647.395203 622.797363,636.887207 
	C544.028442,538.897705 465.217926,440.941589 386.455688,342.946686 
	C350.361115,298.038391 314.338684,253.072128 278.301819,208.117493 
	C266.506287,193.403046 252.371643,191.375061 236.190659,202.691696 
M661.872681,312.500031 
	C661.872375,285.676788 661.932678,258.853333 661.836853,232.030441 
	C661.805786,223.325653 661.107422,214.651886 655.532410,207.356171 
	C647.119568,196.346619 626.388977,192.513275 611.445435,198.818390 
	C604.758484,201.639832 599.598022,206.134384 597.462402,212.850540 
	C595.529846,218.927994 594.258789,225.502228 594.245728,231.860596 
	C594.049255,327.323792 594.100098,422.787506 594.146179,518.251099 
	C594.147949,521.901733 594.436218,525.593384 595.027039,529.194336 
	C596.396729,537.541382 599.666199,545.010620 607.537598,549.123047 
	C620.086365,555.679138 633.058777,555.693054 646.057129,550.333374 
	C653.737366,547.166565 658.221741,541.066956 659.939697,533.227173 
	C661.140442,527.747620 661.783813,522.033447 661.793884,516.422546 
	C661.915588,448.781891 661.872681,381.140930 661.872681,312.500031 
z"/>
<path fill="#FEFEFE" opacity="1.000000" stroke="none" 
	d="
M236.473877,202.463135 
	C252.371643,191.375061 266.506287,193.403046 278.301819,208.117493 
	C314.338684,253.072128 350.361115,298.038391 386.455688,342.946686 
	C465.217926,440.941589 544.028442,538.897705 622.797363,636.887207 
	C631.244202,647.395203 640.194641,657.578003 647.764893,668.692627 
	C659.374756,685.738281 656.621460,699.964661 640.232483,712.415039 
	C636.304382,715.399170 631.926453,718.060974 627.361511,719.885376 
	C614.593933,724.987793 603.465271,721.515625 593.847778,709.614441 
	C575.112915,686.430847 556.532410,663.122620 537.887573,639.866272 
	C457.581085,539.697693 377.274567,439.529144 296.967316,339.361145 
	C293.909271,335.546783 290.843567,331.738525 286.948059,326.890198 
	C286.948059,329.988068 286.948059,331.746368 286.948059,333.504700 
	C286.947998,446.330872 287.003906,559.157166 286.810394,671.982971 
	C286.798615,678.840393 285.583069,685.937073 283.535950,692.487488 
	C281.067963,700.384766 275.001434,705.945923 266.710022,707.134827 
	C258.777588,708.272217 250.434311,709.016907 242.598618,707.810425 
	C228.857346,705.694580 221.532379,696.901367 219.935471,683.151611 
	C219.494339,679.353333 219.231918,675.510620 219.231003,671.688232 
	C219.196198,526.197510 219.203583,380.706726 219.197159,235.215988 
	C219.196716,225.140274 220.640060,215.545654 228.591187,208.310638 
	C230.909271,206.201294 233.645889,204.551910 236.473877,202.463135 
z"/>
<path fill="#FDFDFD" opacity="1.000000" stroke="none" 
	d="
M661.872681,313.000061 
	C661.872681,381.140930 661.915588,448.781891 661.793884,516.422546 
	C661.783813,522.033447 661.140442,527.747620 659.939697,533.227173 
	C658.221741,541.066956 653.737366,547.166565 646.057129,550.333374 
	C633.058777,555.693054 620.086365,555.679138 607.537598,549.123047 
	C599.666199,545.010620 596.396729,537.541382 595.027039,529.194336 
	C594.436218,525.593384 594.147949,521.901733 594.146179,518.251099 
	C594.100098,422.787506 594.049255,327.323792 594.245728,231.860596 
	C594.258789,225.502228 595.529846,218.927994 597.462402,212.850540 
	C599.598022,206.134384 604.758484,201.639832 611.445435,198.818390 
	C626.388977,192.513275 647.119568,196.346619 655.532410,207.356171 
	C661.107422,214.651886 661.805786,223.325653 661.836853,232.030441 
	C661.932678,258.853333 661.872375,285.676788 661.872681,313.000061 
z"/>
</svg>